<svg width="374" height="122" viewBox="0 0 374 122" fill="none" xmlns="http://www.w3.org/2000/svg">
<mask id="mask0_231_59" style="mask-type:luminance" maskUnits="userSpaceOnUse" x="0" y="0" width="374" height="122">
<path d="M374 0H0V122H374V0Z" fill="white"/>
</mask>
<g mask="url(#mask0_231_59)">
<path d="M175.562 35.6684C169.06 31.6572 160.99 31.6572 154.488 35.6684H154.43C150.192 38.2602 147.58 43.1353 147.58 48.3189V58.0073C147.58 63.1909 150.192 68.066 154.43 70.6578L154.488 70.7195C157.739 72.6942 161.339 73.6815 164.996 73.6815C168.654 73.6815 172.253 72.6942 175.504 70.7195L175.562 70.6578C179.801 68.066 182.413 63.1909 182.413 58.0073V48.3189C182.413 43.0736 179.801 38.2602 175.562 35.6684ZM173.821 57.9456C173.821 59.8586 172.834 61.7098 171.266 62.6973L171.208 62.759C167.377 65.1039 162.616 65.1039 158.842 62.759L158.784 62.6973C157.217 61.7098 156.23 59.9203 156.23 57.9456V48.3189C156.23 46.4058 157.217 44.5547 158.784 43.5672H158.842C160.758 42.3948 162.906 41.7775 165.054 41.7775C167.202 41.7775 169.351 42.3948 171.266 43.5672L171.325 43.6289C172.892 44.6164 173.879 46.4058 173.879 48.3806V57.9456H173.821Z" fill="black"/>
<path d="M252.72 35.6684L252.66 35.6067C246.16 31.6572 238.148 31.6572 231.645 35.6067H231.588C227.35 38.1985 224.736 43.0735 224.736 48.2571V57.9456C224.736 63.1292 227.35 68.0042 231.588 70.596L231.645 70.6577C234.896 72.6325 238.496 73.6198 242.154 73.6198C245.811 73.6198 249.411 72.6325 252.66 70.6577H252.72C255.623 68.8681 257.828 66.0295 258.874 62.6355L250.687 59.7352C250.281 60.9693 249.469 62.08 248.365 62.7589H248.308C244.476 65.1039 239.715 65.1039 235.94 62.7589L235.883 62.6972C234.316 61.7097 233.329 59.9203 233.329 57.9456V57.2049H259.569V48.3188C259.569 43.0735 256.901 38.2602 252.72 35.6684ZM233.329 48.072C233.387 46.2207 234.373 44.5544 235.883 43.5672H235.94C239.772 41.2222 244.533 41.2222 248.308 43.5672L248.365 43.6289C249.875 44.5544 250.862 46.2824 250.919 48.1337H233.329V48.072Z" fill="black"/>
<path d="M367.091 35.6685C360.589 31.6575 352.519 31.6575 346.016 35.6068L345.959 35.6685C341.719 38.2603 339.108 43.1354 339.108 48.319V58.0074C339.108 63.191 341.719 68.0661 345.959 70.6579L346.016 70.7196C349.268 72.6943 352.866 73.6818 356.525 73.6818C360.183 73.6818 363.78 72.6943 367.032 70.7196L367.091 70.6579C371.329 68.0661 373.94 63.191 373.94 58.0074V48.319C374 43.0737 371.329 38.2603 367.091 35.6685ZM365.407 57.9457C365.407 59.8588 364.421 61.7101 362.853 62.6974L362.794 62.7591C358.962 65.1041 354.201 65.1041 350.429 62.7591L350.369 62.6974C348.802 61.7101 347.815 59.9205 347.815 57.9457V48.319C347.815 46.4062 348.802 44.5548 350.369 43.5676L350.429 43.5056C352.345 42.3332 354.492 41.7162 356.64 41.7162C358.788 41.7162 360.937 42.3332 362.853 43.5056L362.911 43.5676C364.478 44.5548 365.465 46.3445 365.465 48.319V57.9457H365.407Z" fill="black"/>
<path d="M135.039 18.4514L134.459 18.0811C127.724 13.9466 119.306 13.9466 112.571 18.0811L111.991 18.4514C107.462 21.2283 104.676 26.4118 104.676 31.9042V32.3978V42.8267V72.6942H113.268V57.0817C116.461 58.8711 120.003 59.7969 123.544 59.7969C127.318 59.7969 131.091 58.7477 134.517 56.7115L135.097 56.341C139.626 53.5641 142.412 48.3805 142.412 42.8884V31.9659C142.354 26.4118 139.568 21.2283 135.039 18.4514ZM133.762 42.8267C133.762 45.11 132.601 47.2082 130.743 48.3805L130.162 48.7507C126.04 51.2808 120.99 51.2808 116.867 48.7507L116.287 48.3805C114.429 47.2082 113.268 45.11 113.268 42.8267V32.4595V31.9659C113.268 29.6826 114.429 27.5844 116.287 26.4118L116.867 26.0416C118.899 24.8075 121.222 24.1288 123.486 24.1288C125.808 24.1288 128.072 24.7458 130.104 26.0416L130.685 26.4118C132.543 27.5844 133.704 29.6826 133.704 31.9659V42.8267H133.762Z" fill="black"/>
<path d="M317.335 33.3234C311.936 36.594 308.628 42.765 308.628 49.3678V72.5708H317.22V49.3678C317.22 46.0356 318.905 42.9502 321.633 41.2839C324.361 39.6177 327.729 39.6177 330.457 41.2839L332.894 42.765L337.192 34.8663L334.753 33.3851C329.411 30.0529 322.736 30.0529 317.335 33.3234Z" fill="black"/>
<path d="M198.262 61.8333V14.5638H189.67V61.8333C189.67 67.881 194.315 72.8178 200.004 72.8178H202.268V63.6847H200.004C199.017 63.623 198.262 62.8208 198.262 61.8333Z" fill="black"/>
<path d="M217.943 31.5339H209.351V73.0026H217.943V31.5339Z" fill="black"/>
<path d="M292.488 34.7431C286.334 31.7193 279.077 31.9661 273.155 35.6069H273.097C268.859 38.1987 266.246 43.0738 266.246 48.2576V57.9458C266.246 63.1296 268.859 68.0045 273.097 70.5965L273.155 70.6582C276.406 72.6327 280.006 73.6202 283.664 73.6202C287.321 73.6202 290.921 72.6327 294.172 70.6582H294.23C298.468 68.0664 301.081 63.1913 301.081 58.0075V48.3193C301.081 47.9489 301.021 47.5786 301.021 47.2701H301.081V14.8726H292.488V34.7431ZM292.488 57.9458C292.488 59.8589 291.502 61.7102 289.934 62.6975H289.875C286.043 65.0425 281.284 65.0425 277.51 62.6975L277.452 62.6358C275.883 61.6485 274.896 59.8589 274.896 57.8841V48.3193C274.896 46.4063 275.883 44.5549 277.452 43.5676H277.51C279.426 42.395 281.573 41.778 283.721 41.778C285.869 41.778 288.018 42.3333 289.875 43.5059L289.934 43.5676C291.502 44.5549 292.488 46.3446 292.488 48.3193V57.9458Z" fill="black"/>
<path d="M213.88 14.5638C212.312 14.5638 210.861 15.4277 210.048 16.9087C209.235 18.3281 209.235 20.1176 210.048 21.5987C210.861 23.018 212.254 23.9437 213.88 23.9437C215.447 23.9437 216.899 23.0797 217.712 21.5987C218.524 20.1794 218.524 18.3898 217.712 16.9087C216.899 15.4277 215.447 14.5638 213.88 14.5638Z" fill="black"/>
<path d="M182.355 100.587C182.355 94.6627 184.097 89.4174 191.818 89.4174C198.611 89.4174 201.107 93.3669 201.107 97.8715H196.463C196.172 95.218 195.07 93.4286 191.818 93.4286C187.638 93.4286 186.942 96.5757 186.942 100.587C186.942 104.598 187.696 107.745 191.818 107.745C195.07 107.745 196.114 105.956 196.463 103.24H201.107C201.107 107.992 198.669 111.756 191.818 111.756C183.981 111.756 182.355 106.511 182.355 100.587Z" fill="#EE2252"/>
<path d="M204.591 102.747C204.591 98.1806 206.391 93.7992 212.719 93.7992C218.989 93.7992 220.847 98.1189 220.847 102.747C220.847 107.437 218.989 111.757 212.66 111.757C206.333 111.757 204.591 107.375 204.591 102.747ZM216.608 102.747C216.608 99.9701 215.854 97.7485 212.777 97.7485C209.758 97.7485 208.945 99.9083 208.945 102.747C208.945 105.648 209.758 107.745 212.719 107.745C215.68 107.745 216.608 105.648 216.608 102.747Z" fill="#EE2252"/>
<path d="M224.853 87.4423H229.206V111.447H224.853V87.4423Z" fill="#EE2252"/>
<path d="M233.155 102.747C233.155 98.4272 234.605 93.7989 241.225 93.7989C247.436 93.7989 249.177 99.1062 248.714 104.598H237.625C237.856 107.067 239.251 108.116 241.167 108.116C243.14 108.116 243.836 107.19 244.127 106.203H248.771C248.482 109.103 246.624 111.757 241.339 111.757C234.605 111.757 233.155 107.252 233.155 102.747ZM234.431 89.4177L246.915 87.011V90.3433L234.431 92.75V89.4177ZM244.185 101.019C244.185 99.1062 243.198 97.4399 240.876 97.4399C238.671 97.4399 237.742 99.0445 237.625 101.019H244.185Z" fill="#EE2252"/>
<path d="M251.616 112.682H256.26C256.435 114.163 256.667 115.027 260.092 115.027C263.112 115.027 263.635 114.163 263.635 113.423C263.635 112.867 262.82 112.497 259.337 111.88C255.68 111.201 251.848 110.954 251.848 107.684C251.848 105.956 253.475 105.03 255.391 104.721C253.126 103.919 252.197 101.821 252.197 100.217C252.197 97.0695 253.649 94.1692 260.558 94.1692H267.813V96.2057L265.142 97.2546C266.189 97.6865 267.175 99.1677 267.175 100.834C267.175 104.043 265.608 106.635 259.629 106.635C256.552 106.635 256.318 106.943 256.318 107.375C256.318 107.869 256.609 107.93 261.138 108.548C264.33 109.041 268.222 109.473 268.222 113.176C268.222 115.829 266.537 118.791 260.035 118.791C253.301 118.73 251.616 116.508 251.616 112.682ZM262.531 100.34C262.531 98.9209 262.066 97.8717 259.569 97.8717C257.19 97.8717 256.609 98.9209 256.609 100.34C256.609 101.883 257.132 102.994 259.569 102.994C262.008 102.994 262.531 101.945 262.531 100.34Z" fill="#EE2252"/>
<path d="M270.718 88.862C270.718 86.9492 271.879 86.4556 273.504 86.4556C275.13 86.4556 276.232 86.9492 276.232 88.862C276.232 90.7751 275.13 91.2687 273.504 91.2687C271.819 91.2687 270.718 90.7751 270.718 88.862ZM271.298 94.0458H275.711V111.448H271.298V94.0458Z" fill="#EE2252"/>
<path d="M279.483 102.747C279.483 98.1806 281.284 93.7992 287.612 93.7992C293.881 93.7992 295.739 98.1189 295.739 102.747C295.739 107.437 293.881 111.757 287.553 111.757C281.225 111.757 279.483 107.375 279.483 102.747ZM291.442 102.747C291.442 99.9701 290.689 97.7485 287.612 97.7485C284.593 97.7485 283.781 99.9083 283.781 102.747C283.781 105.648 284.593 107.745 287.553 107.745C290.572 107.745 291.442 105.648 291.442 102.747Z" fill="#EE2252"/>
<path d="M34.0211 46.714L74.08 21.0429L41.7426 1.17239C39.1881 -0.432057 35.9951 -0.432057 33.3826 1.17239L1.50957 20.9812C-0.522396 22.2771 -0.522396 25.4243 1.50957 26.6584L34.0211 46.714Z" fill="#1FB4C3"/>
<path d="M4.64451 53.4403L34.6597 71.8914C36.5756 73.064 37.7366 75.2238 37.7366 77.5688V118.667C37.7366 121.197 35.1821 122.802 33.0921 121.506L3.07698 103.117C1.16113 101.944 0 99.7841 0 97.4393V56.2789C0 53.7488 2.55448 52.206 4.64451 53.4403Z" fill="#FAA41F"/>
<path d="M74.08 21.0432L34.0212 46.7145C36.3434 48.1337 37.7947 50.7872 37.7947 53.626V98.3655L74.1381 76.0883C76.6926 74.4838 78.318 71.5835 78.318 68.3744V28.6951C78.2599 25.548 76.6926 22.5859 74.08 21.0432Z" fill="#EE2252"/>
</g>
</svg>
